#tb 0: 1/25
#media_type 0: video
#codec_id 0: rawvideo
#dimensions 0: 352x288
#sar 0: 0/1
0,          0,          0,        1,   304128, 0x348bb7a0
0,          1,          1,        1,   304128, 0xaf9634d7
0,          2,          2,        1,   304128, 0x81161fd3
0,          3,          3,        1,   304128, 0x6839b383
0,          4,          4,        1,   304128, 0xa55299b8
0,          5,          5,        1,   304128, 0x66fb65b3
0,          6,          6,        1,   304128, 0xe6be2a99
0,          7,          7,        1,   304128, 0xfb33cb55
0,          8,          8,        1,   304128, 0x51ab3d74
0,          9,          9,        1,   304128, 0x67dc44ee
0,         10,         10,        1,   304128, 0x2eac3b50
0,         11,         11,        1,   304128, 0xd4a4c377
0,         12,         12,        1,   304128, 0x1eefe29c
0,         13,         13,        1,   304128, 0x3a84d488
0,         14,         14,        1,   304128, 0x70d3b165
0,         15,         15,        1,   304128, 0x578e58d4
0,         16,         16,        1,   304128, 0x08bba87e
0,         17,         17,        1,   304128, 0xccc86c47
0,         18,         18,        1,   304128, 0x70bf9aa2
0,         19,         19,        1,   304128, 0x3fc3d5b5
0,         20,         20,        1,   304128, 0xef52590b
0,         21,         21,        1,   304128, 0x4f7adde0
0,         22,         22,        1,   304128, 0xc076ef54
0,         23,         23,        1,   304128, 0xed2bba2d
0,         24,         24,        1,   304128, 0x6fce6367
0,         25,         25,        1,   304128, 0x71fe3c07
0,         26,         26,        1,   304128, 0x6395fc7c
0,         27,         27,        1,   304128, 0xa800ea2c
0,         28,         28,        1,   304128, 0x758dfa57
0,         29,         29,        1,   304128, 0x7fbba7c6
0,         30,         30,        1,   304128, 0x2842e2a7
0,         31,         31,        1,   304128, 0xafc2787c
0,         32,         32,        1,   304128, 0x01e9a76b
0,         33,         33,        1,   304128, 0x32a2377b
0,         34,         34,        1,   304128, 0x10e0af2f
0,         35,         35,        1,   304128, 0x8ab789ca
0,         36,         36,        1,   304128, 0x3a3a5c1d
0,         37,         37,        1,   304128, 0xeecb3f50
0,         38,         38,        1,   304128, 0x317f8a3f
0,         39,         39,        1,   304128, 0x0b90ba72
0,         40,         40,        1,   304128, 0x1d6a509e
0,         41,         41,        1,   304128, 0x11416b22
0,         42,         42,        1,   304128, 0x325014ed
0,         43,         43,        1,   304128, 0xb36a830c
0,         44,         44,        1,   304128, 0xf67fd957
0,         45,         45,        1,   304128, 0x091ad040
0,         46,         46,        1,   304128, 0xd6b4b00e
0,         47,         47,        1,   304128, 0x440b3f2a
0,         48,         48,        1,   304128, 0x7c329040
0,         49,         49,        1,   304128, 0xf6619a69
